Coordinates
version=1
nRows=33
nColumns=30
inDegrees=yes

Units are S.I. units (second, meters, Newtons, ...)
Angles are in degrees.

endheader
time	floatyaw	floatroll	floatpitch	floatx	floaty	floatz	pro_sup_l	deviation_l	flexion_l	cmc_flexion_l	cmc_abduction_l	mp_flexion_l	ip_flexion_l	2mcp_flexion_l	2mcp_abduction_l	2pm_flexion_l	2md_flexion_l	3mcp_flexion_l	3mcp_abduction_l	3pm_flexion_l	3md_flexion_l	4mcp_flexion_l	4mcp_abduction_l	4pm_flexion_l	4md_flexion_l	5mcp_flexion_l	5mcp_abduction_l	5pm_flexion_l	5md_flexion_l
-0.995000	-4.263706	-0.696975	99.509199	-0.103070	-0.193288	-0.017130	88.932604	0.046847	-0.198350	16.058574	6.067163	-21.988455	-34.771023	37.595993	8.144743	46.874217	32.674551	21.641080	4.626035	48.325103	32.549480	10.868411	-4.678886	63.091348	42.510689	6.154586	-8.066108	61.631076	41.412957
-0.985000	-4.263706	-0.696975	99.509199	-0.103054	-0.193290	-0.017111	88.920714	0.025503	-0.202092	16.042748	6.096357	-21.983868	-34.766907	37.628514	8.142673	46.906886	32.687791	21.647360	4.630464	48.349002	32.555094	10.881810	-4.680805	63.098083	42.508326	6.189455	-8.069525	61.625485	41.406051
-0.975000	-4.263706	-0.696975	99.509199	-0.103037	-0.193290	-0.017097	88.914173	0.011612	-0.206826	16.022879	6.118925	-21.980499	-34.761793	37.656697	8.139364	46.938164	32.700776	21.652053	4.633884	48.369718	32.560302	10.894759	-4.679631	63.103725	42.505765	6.231581	-8.073617	61.622169	41.401384
-0.965000	-4.263706	-0.696975	99.509199	-0.103022	-0.193287	-0.017085	88.913844	0.004401	-0.211199	16.000299	6.131019	-21.980487	-34.757196	37.674449	8.136788	46.962496	32.711787	21.656848	4.635662	48.384673	32.563935	10.908589	-4.676644	63.105508	42.501510	6.275701	-8.077995	61.620075	41.398042
-0.955000	-4.263706	-0.696975	99.509199	-0.103011	-0.193281	-0.017076	88.919410	0.001360	-0.212903	15.976673	6.132810	-21.985983	-34.754876	37.678940	8.135502	46.976711	32.719640	21.661487	4.636485	48.391907	32.564923	10.923339	-4.674061	63.101684	42.494650	6.315628	-8.082735	61.613714	41.393163
-0.945000	-4.263706	-0.696975	99.509199	-0.103007	-0.193271	-0.017065	88.930451	-0.000159	-0.209970	15.953538	6.127036	-21.998178	-34.756186	37.671616	8.134367	46.980704	32.723877	21.664902	4.637425	48.390878	32.562732	10.937735	-4.673904	63.092117	42.485384	6.346056	-8.087539	61.597245	41.383933
-0.935000	-4.263706	-0.696975	99.509199	-0.103007	-0.193257	-0.017052	88.946613	-0.001955	-0.202026	15.931924	6.116478	-22.016665	-34.761539	37.657521	8.131592	46.976876	32.724742	21.667095	4.638873	48.382820	32.557550	10.949858	-4.676801	63.078541	42.475153	6.364675	-8.091796	61.569268	41.369685
-0.925000	-4.263706	-0.696975	99.509199	-0.103010	-0.193239	-0.017035	88.966701	-0.004991	-0.190783	15.912019	6.102466	-22.039546	-34.770306	37.643365	8.126359	46.968867	32.723042	21.670106	4.640033	48.370594	32.550321	10.957916	-4.681405	63.064285	42.466308	6.373582	-8.095532	61.534926	41.352686
-0.915000	-4.263706	-0.696975	99.509199	-0.103012	-0.193222	-0.017015	88.987769	-0.009964	-0.179550	15.893132	6.085555	-22.064014	-34.781122	37.635197	8.119855	46.960375	32.720038	21.677266	4.639288	48.358141	32.542675	10.960787	-4.684853	63.053483	42.461457	6.379205	-8.100411	61.503811	41.337114
-0.905000	-4.263706	-0.696975	99.509199	-0.103008	-0.193210	-0.016992	89.005493	-0.017616	-0.172087	15.874262	6.067517	-22.086957	-34.792382	37.636546	8.114956	46.954513	32.717371	21.691363	4.635157	48.349609	32.536709	10.958414	-4.684145	63.050013	42.462725	6.390550	-8.109630	61.485105	41.326964
-0.895000	-4.263706	-0.696975	99.509199	-0.102995	-0.193207	-0.016969	89.016136	-0.028288	-0.171410	15.855079	6.052586	-22.105463	-34.802731	37.647627	8.114782	46.953584	32.716837	21.713204	4.627248	48.348360	32.534485	10.952190	-4.677810	63.056427	42.471068	6.416149	-8.126186	61.483183	41.324226
-0.885000	-4.263706	-0.696975	99.509199	-0.102972	-0.193215	-0.016948	89.019099	-0.041016	-0.179066	15.836733	6.046512	-22.117383	-34.811479	37.665876	8.121098	46.959130	32.720030	21.741631	4.616596	48.356240	32.537399	10.945339	-4.666982	63.073218	42.485870	6.460716	-8.150282	61.496406	41.328411
-0.875000	-4.263706	-0.696975	99.509199	-0.102940	-0.193233	-0.016930	89.018301	-0.053010	-0.195112	15.821950	6.053815	-22.122006	-34.818878	37.687558	8.133512	46.972274	32.728059	21.774767	4.605263	48.373514	32.545772	10.942883	-4.655233	63.098783	42.505035	6.522982	-8.177787	61.519556	41.337518
-0.865000	-4.263706	-0.696975	99.509199	-0.102902	-0.193258	-0.016917	89.021092	-0.060250	-0.218577	15.814312	6.075148	-22.120490	-34.826128	37.709668	8.149810	46.994162	32.741509	21.811277	4.595521	48.399438	32.558956	10.950651	-4.647125	63.130278	42.525734	6.596057	-8.201333	61.547980	41.349632
-0.855000	-4.263706	-0.696975	99.509199	-0.102860	-0.193287	-0.016910	89.034843	-0.059160	-0.247992	15.817013	6.106531	-22.115649	-34.835041	37.731065	8.167043	47.025967	32.760476	21.850620	4.589082	48.432959	32.575843	10.973252	-4.646161	63.165023	42.545569	6.670355	-8.213855	61.580498	41.364011
-0.845000	-4.263706	-0.696975	99.509199	-0.102817	-0.193316	-0.016908	89.062935	-0.048494	-0.281541	15.831613	6.140847	-22.111013	-34.847384	37.752271	8.182682	47.068205	32.784469	21.892168	4.586696	48.472988	32.595347	11.011813	-4.653200	63.201617	42.563520	6.737590	-8.212434	61.619019	41.380889
-0.835000	-4.263706	-0.696975	99.509199	-0.102774	-0.193342	-0.016910	89.102530	-0.030334	-0.316804	15.857273	6.170531	-22.109544	-34.864111	37.774264	8.195358	47.119817	32.812235	21.933923	4.588188	48.518049	32.616556	11.062723	-4.666175	63.240015	42.580113	6.793766	-8.199985	61.665309	41.400225
-0.825000	-4.263706	-0.696975	99.509199	-0.102731	-0.193364	-0.016914	89.145454	-0.009536	-0.350512	15.890742	6.189891	-22.112659	-34.884813	37.797186	8.205043	47.177697	32.841722	21.971888	4.592797	48.565616	32.638501	11.118152	-4.681165	63.280676	42.596792	6.839885	-8.183832	61.717519	41.420451
-0.815000	-4.263706	-0.696975	99.509199	-0.102691	-0.193382	-0.016917	89.181623	0.008181	-0.378891	15.927075	6.196126	-22.120041	-34.907693	37.819768	8.212759	47.236971	32.870319	22.000765	4.599583	48.611733	32.659830	11.168199	-4.694193	63.323534	42.614997	6.880380	-8.172177	61.769246	41.438341
-0.805000	-4.263706	-0.696975	99.509199	-0.102655	-0.193396	-0.016918	89.203100	0.018520	-0.398721	15.960804	6.189196	-22.130250	-34.930167	37.839601	8.220015	47.291957	32.895392	22.015879	4.607650	48.651632	32.678823	11.203905	-4.702878	63.367385	42.635415	6.920273	-8.170529	61.811720	41.450153
-0.795000	-4.263706	-0.696975	99.509199	-0.102629	-0.193407	-0.016918	89.206928	0.020102	-0.408606	15.987231	6.171289	-22.141615	-34.949787	37.853834	8.228214	47.337556	32.914999	22.015475	4.616006	48.681544	32.694009	11.220260	-4.707241	63.409727	42.657543	6.962459	-8.179760	61.837420	41.453246
-0.785000	-4.263706	-0.696975	99.509199	-0.102613	-0.193418	-0.016917	89.195949	0.014622	-0.409651	16.003509	6.146277	-22.152858	-34.965038	37.859946	8.238149	47.370594	32.928529	22.002236	4.623223	48.700831	32.705032	11.218158	-4.709336	63.446939	42.679574	7.006146	-8.196211	61.842904	41.447219
-0.775000	-4.263706	-0.696975	99.509199	-0.102609	-0.193429	-0.016918	89.177708	0.005980	-0.405152	16.009243	6.118890	-22.163230	-34.975657	37.856617	8.249601	47.390556	32.936871	21.983058	4.627296	48.712811	32.713024	11.204203	-4.711849	63.474910	42.698762	7.047013	-8.213330	61.829867	41.434143
-0.765000	-4.263706	-0.696975	99.509199	-0.102614	-0.193439	-0.016920	89.161835	-0.001002	-0.399475	16.006436	6.093366	-22.172343	-34.982480	37.844664	8.261214	47.399441	32.941945	21.966863	4.626080	48.723295	32.720015	11.188018	-4.716414	63.490334	42.712400	7.079077	-8.224178	61.804668	41.417992
-0.755000	-4.263706	-0.696975	99.509199	-0.102623	-0.193448	-0.016923	89.156594	-0.001944	-0.396626	15.998796	6.072035	-22.180040	-34.987006	37.827391	8.270956	47.400948	32.945874	21.961119	4.618350	48.737534	32.727716	11.178216	-4.722762	63.492330	42.719115	7.097609	-8.224060	61.776677	41.403531
-0.745000	-4.263706	-0.696975	99.509199	-0.102630	-0.193453	-0.016927	89.165806	0.005723	-0.398925	15.990556	6.054788	-22.186438	-34.990932	37.809647	8.277194	47.399481	32.950303	21.968549	4.604964	48.757421	32.736535	11.179345	-4.729392	63.483279	42.719638	7.101761	-8.212302	61.755574	41.394853
-0.735000	-4.263706	-0.696975	99.509199	-0.102632	-0.193454	-0.016931	89.187602	0.021774	-0.406246	15.985227	6.039857	-22.191996	-34.995736	37.795723	8.279745	47.399284	32.956231	21.985800	4.589291	48.780713	32.745492	11.191546	-4.735184	63.467956	42.716374	7.095442	-8.192148	61.748209	41.394040
-0.725000	-4.263706	-0.696975	99.509199	-0.102626	-0.193450	-0.016935	89.215754	0.043342	-0.416258	15.984754	6.025349	-22.197334	-35.002313	37.787284	8.280139	47.403800	32.964246	22.005126	4.576203	48.802692	32.753058	11.212534	-4.740487	63.451296	42.711995	7.085906	-8.168733	61.756482	41.400599
-0.715000	-4.263706	-0.696975	99.509199	-0.102615	-0.193442	-0.016941	89.242869	0.066496	-0.425795	15.989400	6.010476	-22.202798	-35.010700	37.782649	8.280941	47.415175	32.974834	22.018441	4.569841	48.819142	32.758290	11.239805	-4.746640	63.436281	42.708101	7.080940	-8.146536	61.777499	41.411984
-0.705000	-4.263706	-0.696975	99.509199	-0.102602	-0.193431	-0.016949	89.263644	0.088468	-0.432670	15.998330	5.995693	-22.208079	-35.020064	37.777902	8.284536	47.434007	32.988457	22.021385	4.571445	48.828677	32.761482	11.271295	-4.754440	63.423400	42.704923	7.086239	-8.127988	61.805758	41.424850
-0.695000	-4.263706	-0.696975	99.509199	-0.102590	-0.193422	-0.016962	89.276535	0.109038	-0.436853	16.010506	5.981754	-22.212198	-35.029012	37.769268	8.291940	47.459456	33.005367	22.014997	4.578766	48.832943	32.763873	11.304599	-4.763046	63.411957	42.702162	7.104046	-8.113700	61.835828	41.436258
-0.685000	-4.263706	-0.696975	99.509199	-0.102583	-0.193418	-0.016983	89.283305	0.130161	-0.440272	16.025346	5.968429	-22.213860	-35.036099	37.755557	8.302094	47.489670	33.025261	22.004298	4.587527	48.834821	32.766663	11.336282	-4.770383	63.402070	42.700131	7.133070	-8.103328	61.864005	41.444313
-0.675000	-4.263706	-0.696975	99.509199	-0.102583	-0.193421	-0.017011	89.287124	0.154152	-0.445435	16.042754	5.953958	-22.211906	-35.040245	37.739318	8.312063	47.522233	33.046943	21.995160	4.593891	48.836260	32.770088	11.362583	-4.774719	63.395680	42.700116	7.169170	-8.095915	61.888571	41.448244
